<svg xmlns="http://www.w3.org/2000/svg" viewBox="0 0 512 512">
<path fill="#999999" d="M475.4,0h-439C16.3,0,0,16.6,0,36.9v438.2C0,495.4,16.3,512,36.5,512h439c20.1,0,36.6-16.6,36.6-36.9V36.9
	C512,16.6,495.5,0,475.4,0z M154.7,438.9H78.9V194.5h76v244.3H154.7z M116.8,161.1c-24.3,0-44-19.8-44-44s19.7-44,44-44
	c24.2,0,44,19.8,44,44C160.8,141.5,141.1,161.1,116.8,161.1z M439.2,438.9h-75.9V320c0-28.3-0.6-64.8-39.4-64.8
	c-39.5,0-45.6,30.9-45.6,62.7v120.9h-75.9V194.5h72.8v33.4h1c10.2-19.2,35-39.4,71.9-39.4c76.8,0,91.1,50.6,91.1,116.5V438.9z"/>
</svg>
