<?xml version="1.0" encoding="utf-8"?>
<!-- Generator: Adobe Illustrator 26.0.3, SVG Export Plug-In . SVG Version: 6.00 Build 0)  -->
<svg version="1.1" id="Layer_1" xmlns="http://www.w3.org/2000/svg" xmlns:xlink="http://www.w3.org/1999/xlink" x="0px" y="0px"
	 viewBox="0 0 128 128" style="enable-background:new 0 0 128 128;" xml:space="preserve">
<style type="text/css">
	.st0{fill-rule:evenodd;clip-rule:evenodd;fill:#FFFFFF;}
</style>
<path class="st0" d="M112,128H16c-8.84,0-16-7.16-16-16V16C0,7.16,7.16,0,16,0h96c8.84,0,16,7.16,16,16v96
	C128,120.84,120.84,128,112,128z M24.05,31.48c-3.95,0-7.26,2.88-7.93,6.65L64,66.2l47.88-28.07c-0.67-3.77-3.98-6.65-7.93-6.65
	L24.05,31.48L24.05,31.48z M112,88.46c0,4.43-3.62,8.05-8.05,8.05h-79.9c-4.43,0-8.05-3.62-8.05-8.05v-40.8L64,75.8l48-28.14V88.46z
	"/>
</svg>
