<?xml version="1.0" encoding="utf-8"?>
<!-- Generator: Adobe Illustrator 26.0.3, SVG Export Plug-In . SVG Version: 6.00 Build 0)  -->
<svg version="1.1" id="Layer_1" xmlns="http://www.w3.org/2000/svg" xmlns:xlink="http://www.w3.org/1999/xlink" x="0px" y="0px"
	 viewBox="0 0 128 128" style="enable-background:new 0 0 128 128;" xml:space="preserve">
<style type="text/css">
	.st0{fill-rule:evenodd;clip-rule:evenodd;fill:#FFFFFF;}
</style>
<path class="st0" d="M112,128H16c-8.84,0-16-7.16-16-16V16C0,7.16,7.16,0,16,0h96c8.84,0,16,7.16,16,16v96
	C128,120.84,120.84,128,112,128z M43.43,48.28c0.15-0.12,0.3-0.25,0.45-0.39l4.38-4.31c2.01-1.97,2.2-5.37,0.44-7.55L37.6,22.31
	c-1.76-2.18-4.84-2.34-6.85-0.37l-4.38,4.31c-0.1,0.09-0.19,0.19-0.27,0.29C5.62,48.16,64.8,121.4,90.26,105.86
	c0.12-0.06,0.23-0.13,0.34-0.21l5.13-3.38c2.35-1.55,2.83-4.6,1.07-6.77L85.7,81.77c-1.76-2.18-5.13-2.69-7.48-1.14L73.09,84
	c-0.17,0.11-0.33,0.23-0.48,0.36C66.24,87.55,38.98,53.84,43.43,48.28z M60.45,32.21l-2.48,5.92c7.15,2.99,13.69,7.75,18.91,14.2
	s8.51,13.84,9.94,21.46l6.31-1.19c-1.62-8.63-5.34-17-11.26-24.31C75.95,40.99,68.55,35.6,60.45,32.21z M65.57,20l-2.48,5.92
	c9.11,3.81,17.44,9.87,24.08,18.09C93.82,52.23,98,61.63,99.83,71.34l6.31-1.19c-2.01-10.72-6.64-21.1-13.97-30.18
	C84.82,30.9,75.63,24.21,65.57,20z"/>
</svg>
