<?xml version="1.0" encoding="utf-8"?>
<!-- Generator: Adobe Illustrator 26.0.3, SVG Export Plug-In . SVG Version: 6.00 Build 0)  -->
<svg version="1.1" id="Layer_1" xmlns="http://www.w3.org/2000/svg" xmlns:xlink="http://www.w3.org/1999/xlink" x="0px" y="0px"
	 viewBox="0 0 128 128" style="enable-background:new 0 0 128 128;" xml:space="preserve">
<style type="text/css">
	.st0{fill-rule:evenodd;clip-rule:evenodd;fill:#FFFFFF;}
</style>
<path class="st0" d="M112,128H16c-8.84,0-16-7.16-16-16V16C0,7.16,7.16,0,16,0h96c8.84,0,16,7.16,16,16v96
	C128,120.84,120.84,128,112,128z M112,98.11h-3.52H19.52H16l1.11-3.34l12.23-36.93l0.58-1.75h1.84H46.9
	c-3.2-6.01-4.82-11.27-4.43-15.57C42.95,29.04,52.4,19.89,64,19.89s21.05,9.16,21.54,20.63c0.39,4.3-1.23,9.56-4.43,15.57h15.14
	h1.84l0.58,1.75l12.23,36.93L112,98.11z M53.6,41.45c0,5.75,4.66,10.4,10.4,10.4c5.75,0,10.4-4.66,10.4-10.4
	c0-5.75-4.66-10.4-10.4-10.4C58.25,31.05,53.6,35.71,53.6,41.45z M104.95,93.02L94.41,61.18H78.13C74.52,66.89,69.74,73.16,64,79.89
	c-5.74-6.73-10.52-13-14.13-18.71H33.59L23.05,93.02H104.95z"/>
</svg>
