<?xml version="1.0" encoding="utf-8"?>
<!-- Generator: Adobe Illustrator 26.0.3, SVG Export Plug-In . SVG Version: 6.00 Build 0)  -->
<svg version="1.1" id="Layer_1" xmlns="http://www.w3.org/2000/svg" xmlns:xlink="http://www.w3.org/1999/xlink" x="0px" y="0px"
	 viewBox="0 0 720 960" style="enable-background:new 0 0 720 960;" xml:space="preserve">
<style type="text/css">
	.st0{fill:#FFCC4E;}
</style>
<path class="st0" d="M358.78,33.54c-66.52,0-126.23,24.22-166.96,71.46c-50.97,59.51-76.88,151.14-76.96,272.83
	c-0.21,118.92,25.76,212.17,77.3,277c40.3,50.13,99.76,75.67,165.97,75.67c68.95,0,131.77-25.13,173.79-75.34
	c49.1-58.94,74.18-146.68,74.36-261.14c0.1-87.72-13.36-162.84-40.15-223c-20.66-46.65-55.25-81.71-89.94-103.84
	c-34.48-22.29-73.91-33.64-117.16-33.64L358.78,33.54L358.78,33.54z M709.96,960c-47.94-2.21-99.84-12.32-154.27-29.8
	c-56.03-18.2-109.82-43.5-159.99-75.46c-50.28-32.23-94.2-66.83-130.54-103l-0.44-0.48L264,750.9
	c-51.36-20.78-92.43-42.97-122.52-66.21c-43.1-34.38-77.26-77.48-101.07-127.78C16.4,506.55,4.3,446.33,4.42,377.63
	c0.12-108.1,35.78-199.08,105.76-270.39C180.09,36.04,265.84,0,365.06,0c94.92,0.13,177.72,36.59,246.69,108.11
	c68.9,71.73,103.92,163.47,103.84,272.62c-0.13,88.43-25.12,167.21-74.57,233.8c-49.2,66.84-114.1,112.64-193.06,136.42l-4.95,1.39
	l2.57,4.41c36.76,64.01,77.31,111.67,120.41,141.91c42.15,29.52,90.57,47.13,143.98,52L709.96,960L709.96,960z M359.32,96.72
	c-36.09,0-65.62,12.98-87.63,38.79c-27.65,32.08-41.64,81.57-41.78,147.06c0,64.12,14.13,114.13,41.78,149.09
	c21.91,27.4,51.28,41.22,87.34,41.22c37.38,0,67.92-13.56,90.8-40.94c26.52-31.75,40.15-79.22,40.2-140.64
	c0-47.39-7.29-87.58-21.62-120.02c-11.32-25.37-26.55-44.27-45.33-56.22c-18.77-12.11-40.15-18.33-63.52-18.33L359.32,96.72
	L359.32,96.72z M545.22,591.57c-25.03-1.37-51.9-6.56-80.06-15.69c-29.99-9.6-58.42-23.24-85.09-40.1
	c-26.58-16.95-50.02-35.49-69.37-54.79l-0.64-0.57l-0.72-0.36c-27.34-10.9-49.3-22.9-65.02-34.98
	c-22.7-18.32-40.79-40.96-53.51-67.59c-12.52-26.63-18.98-58.66-18.98-94.97c0.07-57.43,18.9-105.43,56.08-143.26
	c36.91-37.57,82.19-56.71,134.88-56.71c50.12,0,93.91,19.44,130.34,57.21c36.53,37.98,55.15,86.53,55.1,144.25
	c-0.1,46.96-13.5,88.64-39.58,124c-26.03,35.28-60.41,59.62-102.1,72.07l-4.91,1.56c19.89,34.36,44.51,62.88,67.78,79.12
	c22.32,15.57,47.95,25.11,76.14,27.97L545.22,591.57z M359.84,141.4c-18.76,0-33.93,6.72-45.3,19.99
	c-14.26,16.4-21.42,41.93-21.42,75.74c-0.2,33.01,7.16,58.89,21.49,76.82c11.31,14.1,26.47,21.15,44.94,21.15
	c19.31,0,34.94-7.05,46.74-21.03c13.7-16.46,20.55-40.77,20.62-72.57c0-24.25-3.79-45.12-11.19-61.65
	c-5.72-13.12-13.55-22.81-23.16-28.98C382.77,144.59,371.69,141.4,359.84,141.4 M455.39,396.51c-12.82-0.74-26.75-3.47-41.22-8.24
	c-15.59-4.99-30.27-11.95-43.94-20.7c-13.57-8.76-25.68-18.24-35.7-28.12l-0.33-0.37h-0.39c-13.99-5.75-25.22-11.97-33.53-18.2
	c-11.7-9.41-21.04-21.09-27.39-34.83c-6.67-13.65-9.92-30.17-9.92-48.94c0-29.54,9.64-54.43,28.94-73.81
	c18.95-19.49,42.41-29.45,69.49-29.45c25.91,0,48.4,10.02,67.23,29.61c18.77,19.59,28.38,44.62,28.35,74.49
	c0,24.08-6.88,45.51-20.32,63.8c-13.55,18.3-31.14,30.83-52.69,37.33l-2.56,0.64c10.31,17.72,21.52,30.92,33.48,39.22
	c11.5,8.07,24.71,13.07,39.24,14.55L455.39,396.51z M359.94,180.28c-8.08,0-14.57,2.78-19.63,8.77c-6.1,7.2-9.29,18.26-9.29,33.07
	c0,14.54,3.2,25.81,9.42,33.77c4.93,6.1,11.37,9.19,19.4,9.19c8.28,0,14.95-3.1,20.06-9.19c6.01-7.08,8.96-17.78,8.96-31.61
	c0-10.87-1.54-19.99-4.83-27.27c-2.6-5.81-5.75-9.82-10.08-12.56C369.71,181.73,365.06,180.28,359.94,180.28 M371.02,268.53
	c4.44,7.76,9.34,13.46,14.46,17.17c5.34,3.82,11.37,5.86,18.09,6.43v2.09c-6.13-0.3-12.75-1.53-19.67-3.75
	c-7.01-2.29-13.67-5.33-19.7-9.36c-6.26-3.93-11.67-8.23-16.26-12.58c-6.34-2.7-11.42-5.31-15.06-8.37
	c-5.41-4.08-9.65-9.6-12.6-15.71c-2.95-6.34-4.52-13.73-4.52-22.33c0.2-13.42,4.52-24.64,13.23-33.55
	c8.7-8.92,19.35-13.43,31.78-13.43c11.57,0,21.86,4.7,30.48,13.56c8.65,9.07,12.95,20.29,12.95,33.76c0,11-3.13,20.83-9.23,29.12
	C388.72,259.98,380.71,265.44,371.02,268.53"/>
</svg>
